<svg width="22" height="22" viewBox="0 0 22 22" fill="none" xmlns="http://www.w3.org/2000/svg">
<path opacity="0.4" fill-rule="evenodd" clip-rule="evenodd" d="M2.75 10.25C3.16421 10.25 3.5 10.5858 3.5 11C3.5 11.0514 3.53056 11.2197 3.86256 11.4814C4.18609 11.7363 4.70074 11.9988 5.40354 12.233C6.8013 12.699 8.78 13 11 13C13.22 13 15.1987 12.699 16.5965 12.233C17.2993 11.9988 17.8139 11.7363 18.1374 11.4814C18.4694 11.2197 18.5 11.0514 18.5 11C18.5 10.5858 18.8358 10.25 19.25 10.25C19.6642 10.25 20 10.5858 20 11C20 11.708 19.5689 12.2631 19.0659 12.6595C18.5545 13.0625 17.861 13.3927 17.0708 13.6561C15.4827 14.1854 13.3364 14.5 11 14.5C8.66365 14.5 6.51735 14.1854 4.9292 13.6561C4.13904 13.3927 3.4455 13.0625 2.9341 12.6595C2.43114 12.2631 2 11.708 2 11C2 10.5858 2.33579 10.25 2.75 10.25Z" fill="white" fill-opacity="0.65"/>
<path fill-rule="evenodd" clip-rule="evenodd" d="M3.5 4.58337C3.5 4.53198 3.53056 4.36365 3.86256 4.10201C4.18609 3.84703 4.70074 3.58461 5.40354 3.35034C6.8013 2.88442 8.78 2.58337 11 2.58337C13.22 2.58337 15.1987 2.88442 16.5965 3.35034C17.2993 3.58461 17.8139 3.84703 18.1374 4.10201C18.4694 4.36365 18.5 4.53198 18.5 4.58337C18.5 4.63477 18.4694 4.8031 18.1374 5.06474C17.8139 5.31972 17.2993 5.58214 16.5965 5.81641C15.1987 6.28233 13.22 6.58337 11 6.58337C8.78 6.58337 6.8013 6.28233 5.40354 5.81641C4.70074 5.58214 4.18609 5.31972 3.86256 5.06474C3.53056 4.8031 3.5 4.63477 3.5 4.58337ZM18.5 6.62009C18.0838 6.85757 17.5989 7.06341 17.0708 7.23943C15.4827 7.76881 13.3364 8.08337 11 8.08337C8.66365 8.08337 6.51735 7.76881 4.9292 7.23943C4.40114 7.06341 3.91623 6.85757 3.5 6.62009L3.5 17.4167C3.5 17.4681 3.53056 17.6364 3.86256 17.8981C4.18609 18.153 4.70074 18.4155 5.40354 18.6497C6.8013 19.1157 8.78 19.4167 11 19.4167C13.22 19.4167 15.1987 19.1157 16.5965 18.6497C17.2993 18.4155 17.8139 18.153 18.1374 17.8981C18.4694 17.6364 18.5 17.4681 18.5 17.4167V6.62009ZM20 17.4167V4.58337C20 3.87538 19.5689 3.32026 19.0659 2.92389C18.5545 2.52086 17.861 2.1907 17.0708 1.92732C15.4827 1.39794 13.3364 1.08337 11 1.08337C8.66365 1.08337 6.51735 1.39794 4.9292 1.92732C4.13904 2.1907 3.4455 2.52086 2.9341 2.92389C2.43114 3.32026 2 3.87538 2 4.58337L2 17.4157L2 17.4167C2 18.1247 2.43114 18.6798 2.9341 19.0762C3.4455 19.4792 4.13904 19.8094 4.9292 20.0728C6.51735 20.6021 8.66365 20.9167 11 20.9167C13.3364 20.9167 15.4827 20.6021 17.0708 20.0728C17.861 19.8094 18.5545 19.4792 19.0659 19.0762C19.5689 18.6798 20 18.1247 20 17.4167Z" fill="white" fill-opacity="0.4"/>
</svg>
