<svg width="22" height="22" viewBox="0 0 22 22" fill="none" xmlns="http://www.w3.org/2000/svg">
<path opacity="0.4" fill-rule="evenodd" clip-rule="evenodd" d="M7.44358 2.58721C7.38319 2.58368 7.31474 2.58338 7.11661 2.58338H6.36526C5.64071 2.58338 5.13568 2.5838 4.74058 2.61133C4.35242 2.63838 4.12668 2.68894 3.95445 2.76199C3.4172 2.98986 2.98949 3.41756 2.76162 3.95482C2.68857 4.12704 2.63801 4.35279 2.61096 4.74095C2.58343 5.13605 2.58301 5.64108 2.58301 6.36563V9.16671C2.58301 9.58092 2.24722 9.91671 1.83301 9.91671C1.41879 9.91671 1.08301 9.58092 1.08301 9.16671V6.36563L1.08301 6.3384C1.083 5.64744 1.083 5.09007 1.11459 4.63668C1.14708 4.17041 1.21559 3.75839 1.3807 3.36912C1.76048 2.47369 2.47332 1.76085 3.36875 1.38107C3.75802 1.21596 4.17005 1.14745 4.63631 1.11496C5.0897 1.08337 5.64707 1.08337 6.33803 1.08338L6.36526 1.08338H7.11661L7.1391 1.08338C7.30635 1.08336 7.42141 1.08335 7.53114 1.08977C8.79283 1.16355 9.93249 1.86789 10.5627 2.96339C10.6175 3.05866 10.669 3.16157 10.7438 3.31115L10.7538 3.3313C10.8424 3.50851 10.8733 3.5696 10.9035 3.62203C11.2816 4.27933 11.9654 4.70194 12.7224 4.74621C12.7828 4.74974 12.8513 4.75004 13.0494 4.75004H13.7497C14.1639 4.75004 14.4997 5.08583 14.4997 5.50004C14.4997 5.91426 14.1639 6.25004 13.7497 6.25004H13.0494L13.0269 6.25004C12.8597 6.25006 12.7446 6.25006 12.6349 6.24365C11.3732 6.16987 10.2335 5.46553 9.60329 4.37003C9.54848 4.27475 9.49703 4.17184 9.42225 4.02224L9.41219 4.00212C9.32358 3.82491 9.2927 3.76382 9.26253 3.71138C8.88439 3.05409 8.2006 2.63148 7.44358 2.58721Z" fill="white" fill-opacity="0.4"/>
<path fill-rule="evenodd" clip-rule="evenodd" d="M14.6661 6.24978C15.3176 6.24978 15.5462 6.25265 15.7238 6.28398C16.6553 6.44827 17.3845 7.17752 17.5488 8.10894C17.563 8.18949 17.5714 8.28053 17.5763 8.41674C17.4989 8.41666 17.4197 8.41666 17.3388 8.41666L17.3055 8.41666H11.3992L11.3702 8.41666C10.6725 8.41665 10.107 8.41665 9.64424 8.45165C9.16565 8.48784 8.74275 8.56427 8.33949 8.74517C7.69398 9.03475 7.14355 9.50103 6.75179 10.0902C6.50705 10.4582 6.36214 10.8628 6.24776 11.3289C6.13716 11.7796 6.0442 12.3374 5.92951 13.0256L5.92951 13.0256L5.92473 13.0542L4.86903 19.3885C4.81913 19.3854 4.77073 19.3819 4.72369 19.3781C4.26981 19.341 4.00905 19.2718 3.81153 19.1712C3.38816 18.9555 3.04396 18.6113 2.82824 18.1879C2.7276 17.9904 2.65847 17.7296 2.62139 17.2758C2.58359 16.8131 2.58301 16.2189 2.58301 15.3664V9.16667C2.58301 8.75245 2.24722 8.41667 1.83301 8.41667C1.41879 8.41667 1.08301 8.75245 1.08301 9.16667V15.3664L1.08301 15.3986C1.083 16.2114 1.08299 16.867 1.12637 17.3979C1.17103 17.9445 1.26539 18.4247 1.49173 18.8689C1.85126 19.5745 2.42494 20.1482 3.13054 20.5077C3.57476 20.7341 4.0549 20.8284 4.60154 20.8731C4.83962 20.8925 5.10278 20.9033 5.39395 20.9092C5.42875 20.9141 5.46406 20.9167 5.49967 20.9167H15.1835H15.2125H15.2125C15.9102 20.9167 16.4757 20.9167 16.9384 20.8817C17.417 20.8455 17.8399 20.7691 18.2432 20.5881C18.8887 20.2986 19.4391 19.8323 19.8309 19.2432C20.0756 18.8751 20.2205 18.4705 20.3349 18.0044C20.4455 17.5537 20.5385 16.9959 20.6532 16.3077L20.6532 16.3077L20.658 16.2791L21.2018 13.016L21.2072 12.9833C21.3094 12.3702 21.394 11.8626 21.4268 11.4471C21.4608 11.0173 21.4476 10.6065 21.3 10.2092C21.0761 9.6064 20.6481 9.10115 20.0904 8.78123C19.7769 8.60144 19.4379 8.51642 19.0786 8.47219C19.0726 8.23335 19.0586 8.03322 19.026 7.84838C18.7522 6.29601 17.5368 5.08061 15.9844 4.80679C15.66 4.74956 15.2885 4.74965 14.7433 4.74977L14.6661 4.74978H14.2081H13.7498C13.3356 4.74978 12.9998 5.08556 12.9998 5.49978C12.9998 5.91399 13.3356 6.24978 13.7498 6.24978H14.2081H14.6661ZM11.0178 19.4167H15.1835C15.917 19.4167 16.4257 19.4162 16.8253 19.3859C17.2155 19.3564 17.4467 19.3015 17.6292 19.2196C18.0165 19.0458 18.3468 18.766 18.5819 18.4126C18.6927 18.2459 18.7849 18.027 18.8781 17.6469C18.9736 17.2578 19.0578 16.7561 19.1784 16.0325L19.7222 12.7694C19.8312 12.1153 19.9044 11.6721 19.9315 11.3291C19.958 10.9931 19.9318 10.8336 19.8939 10.7314C19.7921 10.4575 19.5976 10.2278 19.344 10.0824C19.2495 10.0282 19.0965 9.97609 18.7607 9.94701C18.4179 9.91732 17.9687 9.91666 17.3055 9.91666H11.3992C10.6656 9.91666 10.1569 9.91716 9.75736 9.94738C9.36719 9.97688 9.13603 10.0319 8.95345 10.1138C8.56614 10.2875 8.23589 10.5673 8.00083 10.9208C7.89002 11.0874 7.79779 11.3064 7.70454 11.6864C7.60904 12.0755 7.52492 12.5772 7.40432 13.3008L6.38506 19.4164C6.46522 19.4164 6.54782 19.4164 6.63301 19.4164H10.9997C11.0057 19.4164 11.0118 19.4165 11.0178 19.4167Z" fill="white" fill-opacity="0.4"/>
</svg>
