<svg width="22" height="22" viewBox="0 0 22 22" fill="none" xmlns="http://www.w3.org/2000/svg">
<path opacity="0.4" fill-rule="evenodd" clip-rule="evenodd" d="M16.4997 1.08337C16.9139 1.08337 17.2497 1.41916 17.2497 1.83337V4.75004H20.1663C20.5806 4.75004 20.9163 5.08583 20.9163 5.50004C20.9163 5.91425 20.5806 6.25004 20.1663 6.25004H17.2497V9.16671C17.2497 9.58092 16.9139 9.91671 16.4997 9.91671C16.0855 9.91671 15.7497 9.58092 15.7497 9.16671V6.25004H12.833C12.4188 6.25004 12.083 5.91425 12.083 5.50004C12.083 5.08583 12.4188 4.75004 12.833 4.75004H15.7497V1.83337C15.7497 1.41916 16.0855 1.08337 16.4997 1.08337Z" fill="white" fill-opacity="0.4"/>
<path fill-rule="evenodd" clip-rule="evenodd" d="M5.00257 1.08337L5.03301 1.08337H5.96634L5.99677 1.08337C6.53093 1.08336 6.97678 1.08335 7.34101 1.11311C7.7209 1.14415 8.07755 1.21126 8.41482 1.38311C8.93226 1.64676 9.35296 2.06746 9.61661 2.5849C9.78845 2.92216 9.85557 3.27882 9.8866 3.6587C9.91636 4.02294 9.91635 4.46878 9.91634 5.00293V5.00297V5.03337V5.96671V5.99711V5.99715C9.91635 6.5313 9.91636 6.97715 9.8866 7.34138C9.85557 7.72126 9.78845 8.07792 9.61661 8.41518C9.35296 8.93263 8.93226 9.35332 8.41482 9.61698C8.07755 9.78882 7.7209 9.85593 7.34101 9.88697C6.97678 9.91673 6.53094 9.91672 5.99679 9.91671H5.99675H5.96634H5.03301H5.00261H5.00256C4.46841 9.91672 4.02257 9.91673 3.65834 9.88697C3.27845 9.85593 2.9218 9.78882 2.58453 9.61698C2.06709 9.35332 1.64639 8.93263 1.38274 8.41518C1.2109 8.07792 1.14379 7.72126 1.11275 7.34138C1.08299 6.97715 1.083 6.5313 1.08301 5.99714L1.08301 5.96671V5.03338L1.08301 5.00294C1.083 4.46879 1.08299 4.02294 1.11275 3.65871C1.14379 3.27882 1.2109 2.92216 1.38274 2.5849C1.64639 2.06746 2.06709 1.64676 2.58453 1.38311C2.9218 1.21126 3.27845 1.14415 3.65834 1.11311C4.02257 1.08335 4.46842 1.08336 5.00257 1.08337ZM3.78049 2.60813C3.49336 2.63159 3.35608 2.67347 3.26552 2.71962C3.03032 2.83946 2.83909 3.03068 2.71925 3.26589C2.67311 3.35645 2.63123 3.49373 2.60777 3.78085C2.58359 4.07673 2.58301 4.46095 2.58301 5.03338V5.96671C2.58301 6.53914 2.58359 6.92335 2.60777 7.21923C2.63123 7.50635 2.67311 7.64364 2.71925 7.7342C2.83909 7.9694 3.03032 8.16062 3.26552 8.28047C3.35608 8.32661 3.49336 8.36849 3.78049 8.39195C4.07637 8.41613 4.46058 8.41671 5.03301 8.41671H5.96634C6.53877 8.41671 6.92299 8.41613 7.21886 8.39195C7.50599 8.36849 7.64327 8.32661 7.73383 8.28047C7.96903 8.16062 8.16026 7.9694 8.2801 7.7342C8.32624 7.64364 8.36813 7.50635 8.39158 7.21923C8.41576 6.92335 8.41634 6.53914 8.41634 5.96671V5.03337C8.41634 4.46095 8.41576 4.07673 8.39158 3.78085C8.36813 3.49373 8.32624 3.35645 8.2801 3.26589C8.16026 3.03068 7.96903 2.83946 7.73383 2.71962C7.64327 2.67347 7.50599 2.63159 7.21886 2.60813C6.92298 2.58396 6.53877 2.58337 5.96634 2.58337H5.03301C4.46058 2.58337 4.07637 2.58396 3.78049 2.60813ZM5.00257 12.0834H5.03301H5.96634H5.99677C6.53093 12.0834 6.97678 12.0834 7.34101 12.1131C7.7209 12.1442 8.07755 12.2113 8.41482 12.3831C8.93226 12.6468 9.35296 13.0675 9.61661 13.5849C9.78845 13.9222 9.85557 14.2788 9.8866 14.6587C9.91636 15.0229 9.91635 15.4688 9.91634 16.0029V16.003V16.0334V16.9667V16.9971V16.9972C9.91635 17.5313 9.91636 17.9771 9.8866 18.3414C9.85557 18.7213 9.78845 19.0779 9.61661 19.4152C9.35296 19.9326 8.93226 20.3533 8.41482 20.617C8.07755 20.7888 7.7209 20.8559 7.34101 20.887C6.97678 20.9167 6.53094 20.9167 5.99679 20.9167H5.96634H5.03301H5.00256C4.46841 20.9167 4.02257 20.9167 3.65834 20.887C3.27845 20.8559 2.9218 20.7888 2.58453 20.617C2.06709 20.3533 1.64639 19.9326 1.38274 19.4152C1.2109 19.0779 1.14379 18.7213 1.11275 18.3414C1.08299 17.9771 1.083 17.5313 1.08301 16.9971L1.08301 16.9667V16.0334L1.08301 16.0029C1.083 15.4688 1.08299 15.0229 1.11275 14.6587C1.14379 14.2788 1.2109 13.9222 1.38274 13.5849C1.64639 13.0675 2.06709 12.6468 2.58453 12.3831C2.9218 12.2113 3.27845 12.1442 3.65834 12.1131C4.02257 12.0834 4.46842 12.0834 5.00257 12.0834ZM3.78049 13.6081C3.49336 13.6316 3.35608 13.6735 3.26552 13.7196C3.03032 13.8395 2.83909 14.0307 2.71925 14.2659C2.67311 14.3564 2.63123 14.4937 2.60777 14.7809C2.58359 15.0767 2.58301 15.4609 2.58301 16.0334V16.9667C2.58301 17.5391 2.58359 17.9234 2.60777 18.2192C2.63123 18.5064 2.67311 18.6436 2.71925 18.7342C2.83909 18.9694 3.03032 19.1606 3.26552 19.2805C3.35608 19.3266 3.49336 19.3685 3.78049 19.3919C4.07637 19.4161 4.46058 19.4167 5.03301 19.4167H5.96634C6.53877 19.4167 6.92299 19.4161 7.21886 19.3919C7.50599 19.3685 7.64327 19.3266 7.73383 19.2805C7.96903 19.1606 8.16026 18.9694 8.2801 18.7342C8.32624 18.6436 8.36813 18.5064 8.39158 18.2192C8.41576 17.9233 8.41634 17.5391 8.41634 16.9667V16.0334C8.41634 15.4609 8.41576 15.0767 8.39158 14.7809C8.36813 14.4937 8.32624 14.3564 8.2801 14.2659C8.16026 14.0307 7.96903 13.8395 7.73383 13.7196C7.64327 13.6735 7.50599 13.6316 7.21886 13.6081C6.92298 13.584 6.53877 13.5834 5.96634 13.5834H5.03301C4.46058 13.5834 4.07637 13.584 3.78049 13.6081ZM16.033 12.0834H16.0026C15.4684 12.0834 15.0226 12.0834 14.6583 12.1131C14.2785 12.1442 13.9218 12.2113 13.5845 12.3831C13.0671 12.6468 12.6464 13.0675 12.3827 13.5849C12.2109 13.9222 12.1438 14.2788 12.1127 14.6587C12.083 15.0229 12.083 15.4688 12.083 16.0029V16.0334V16.9667V16.9971C12.083 17.5313 12.083 17.9771 12.1127 18.3414C12.1438 18.7213 12.2109 19.0779 12.3827 19.4152C12.6464 19.9326 13.0671 20.3533 13.5845 20.617C13.9218 20.7888 14.2785 20.8559 14.6583 20.887C15.0226 20.9167 15.4684 20.9167 16.0026 20.9167H16.033H16.9663H16.9968C17.5309 20.9167 17.9768 20.9167 18.341 20.887C18.7209 20.8559 19.0776 20.7888 19.4148 20.617C19.9323 20.3533 20.353 19.9326 20.6166 19.4152C20.7885 19.0779 20.8556 18.7213 20.8866 18.3414C20.9164 17.9771 20.9164 17.5313 20.9163 16.9972V16.9667V16.0334V16.0029C20.9164 15.4688 20.9164 15.0229 20.8866 14.6587C20.8556 14.2788 20.7885 13.9222 20.6166 13.5849C20.353 13.0675 19.9323 12.6468 19.4148 12.3831C19.0776 12.2113 18.7209 12.1442 18.341 12.1131C17.9768 12.0834 17.5309 12.0834 16.9968 12.0834H16.9663H16.033ZM14.2655 13.7196C14.3561 13.6735 14.4934 13.6316 14.7805 13.6081C15.0764 13.584 15.4606 13.5834 16.033 13.5834H16.9663C17.5388 13.5834 17.923 13.584 18.2189 13.6081C18.506 13.6316 18.6433 13.6735 18.7338 13.7196C18.969 13.8395 19.1603 14.0307 19.2801 14.2659C19.3262 14.3564 19.3681 14.4937 19.3916 14.7809C19.4158 15.0767 19.4163 15.4609 19.4163 16.0334V16.9667C19.4163 17.5391 19.4158 17.9233 19.3916 18.2192C19.3681 18.5064 19.3262 18.6436 19.2801 18.7342C19.1603 18.9694 18.969 19.1606 18.7338 19.2805C18.6433 19.3266 18.506 19.3685 18.2189 19.3919C17.923 19.4161 17.5388 19.4167 16.9663 19.4167H16.033C15.4606 19.4167 15.0764 19.4161 14.7805 19.3919C14.4934 19.3685 14.3561 19.3266 14.2655 19.2805C14.0303 19.1606 13.8391 18.9694 13.7192 18.7342C13.6731 18.6436 13.6312 18.5064 13.6078 18.2192C13.5836 17.9234 13.583 17.5391 13.583 16.9667V16.0334C13.583 15.4609 13.5836 15.0767 13.6078 14.7809C13.6312 14.4937 13.6731 14.3564 13.7192 14.2659C13.8391 14.0307 14.0303 13.8395 14.2655 13.7196Z" fill="white" fill-opacity="0.4"/>
</svg>
