<svg width="22" height="22" viewBox="0 0 22 22" fill="none" xmlns="http://www.w3.org/2000/svg">
<path opacity="0.4" fill-rule="evenodd" clip-rule="evenodd" d="M12.4947 2.42459C11.5311 2.06257 10.4689 2.06257 9.50533 2.42459C8.9001 2.65197 8.31506 3.10839 6.88522 4.25227L4.59355 6.0856C4.2701 6.34436 3.79813 6.29192 3.53938 5.96847C3.28062 5.64503 3.33306 5.17306 3.65651 4.9143L5.94817 3.08097C5.98783 3.04924 6.02702 3.01788 6.06575 2.98689C7.33992 1.96722 8.12065 1.34244 8.9778 1.02041C10.2815 0.530631 11.7186 0.530631 13.0223 1.02041C13.8794 1.34244 14.6601 1.96722 15.9343 2.98689C15.973 3.01788 16.0122 3.04924 16.0519 3.08097L18.3435 4.9143C18.667 5.17306 18.7194 5.64503 18.4607 5.96847C18.2019 6.29192 17.73 6.34436 17.4065 6.0856L15.1148 4.25227C13.685 3.10839 13.1 2.65197 12.4947 2.42459Z" fill="white" fill-opacity="0.4"/>
<path fill-rule="evenodd" clip-rule="evenodd" d="M5.16866 4.66481C5.42742 4.98825 5.37498 5.46022 5.05153 5.71898L4.5932 6.08565C4.17554 6.41978 4.00721 6.55554 3.86269 6.69677C3.14837 7.39478 2.7027 8.32206 2.60387 9.3159C2.58387 9.51698 2.58301 9.73323 2.58301 10.2681V15.5833C2.58301 17.7004 4.29925 19.4167 6.41634 19.4167C7.01465 19.4167 7.49968 18.9316 7.49968 18.3333V14.6666C7.49968 12.7336 9.06668 11.1666 10.9997 11.1666C12.9327 11.1666 14.4997 12.7336 14.4997 14.6666V18.3333C14.4997 18.9316 14.9847 19.4167 15.583 19.4167C17.7001 19.4167 19.4163 17.7004 19.4163 15.5833V10.2681C19.4163 9.73323 19.4155 9.51698 19.3955 9.3159C19.2967 8.32206 18.851 7.39478 18.1367 6.69677C17.9921 6.55554 17.8238 6.41978 17.4062 6.08565L16.9478 5.71898C16.6244 5.46022 16.5719 4.98825 16.8307 4.66481C17.0894 4.34136 17.5614 4.28892 17.8849 4.54768L18.3432 4.91434L18.3763 4.9408C18.7507 5.2403 18.9807 5.42433 19.185 5.62394C20.1514 6.56831 20.7544 7.82287 20.8881 9.16746C20.9164 9.45164 20.9164 9.74624 20.9163 10.2257V10.2681V15.5833C20.9163 18.5289 18.5285 20.9167 15.583 20.9167C14.1563 20.9167 12.9997 19.7601 12.9997 18.3333V14.6666C12.9997 13.562 12.1042 12.6666 10.9997 12.6666C9.89511 12.6666 8.99968 13.562 8.99968 14.6666V18.3333C8.99968 19.7601 7.84308 20.9167 6.41634 20.9167C3.47082 20.9167 1.08301 18.5288 1.08301 15.5833V10.2681L1.08301 10.2257C1.08299 9.74626 1.08297 9.45165 1.11123 9.16746C1.24494 7.82287 1.84791 6.56831 2.81434 5.62394C3.0186 5.42434 3.24866 5.24031 3.62304 4.94083C3.63396 4.9321 3.64499 4.92327 3.65616 4.91434L4.11449 4.54768C4.43794 4.28892 4.9099 4.34136 5.16866 4.66481Z" fill="white" fill-opacity="0.4"/>
</svg>
