<svg width="14" height="13" viewBox="0 0 14 13" fill="none" xmlns="http://www.w3.org/2000/svg">
<path fill-rule="evenodd" clip-rule="evenodd" d="M11.4377 3.09624C11.3704 3.12603 11.2977 3.14145 11.2243 3.14152H0.268525C0.216273 3.14149 0.165162 3.12603 0.121451 3.09701C0.0777412 3.068 0.0433297 3.0267 0.0224291 2.97817C0.00152837 2.92964 -0.00495378 2.876 0.0037769 2.82379C0.0125076 2.77159 0.0360703 2.72309 0.0715825 2.68424L2.38011 0.173189C2.43011 0.118646 2.49064 0.0751238 2.55796 0.0453367C2.62527 0.0155495 2.69793 0.000136132 2.77139 5.77812e-05H13.7271C13.7798 -0.00104578 13.8317 0.0136799 13.8762 0.0423819C13.9207 0.0710837 13.9559 0.11248 13.9772 0.161361C13.9985 0.210242 14.0051 0.264424 13.9961 0.317089C13.9871 0.369754 13.9629 0.418549 13.9267 0.457335L11.6155 2.96839C11.5656 3.02293 11.505 3.06647 11.4377 3.09624ZM11.6155 4.94546C11.5654 4.89117 11.5048 4.84782 11.4375 4.81805C11.3702 4.78828 11.2977 4.77273 11.2243 4.77235H0.268525C0.216273 4.77237 0.165162 4.78783 0.121451 4.81686C0.0777412 4.84587 0.0433297 4.88717 0.0224291 4.9357C0.00152837 4.98423 -0.00495378 5.03787 0.0037769 5.09007C0.0125076 5.14228 0.0360703 5.19078 0.0715825 5.22962L2.38011 7.74201C2.43029 7.7963 2.49087 7.83965 2.55814 7.86942C2.62542 7.89919 2.69799 7.91474 2.77139 7.91512H13.7271C13.7793 7.91485 13.8302 7.89919 13.8737 7.87008C13.9173 7.84097 13.9515 7.79965 13.9722 7.75118C13.9929 7.7027 13.9993 7.64915 13.9905 7.59706C13.9817 7.54498 13.9582 7.49661 13.9228 7.45786L11.6155 4.94546ZM13.9267 10.0033L11.6155 12.5144C11.5656 12.5689 11.505 12.6124 11.4377 12.6422C11.3704 12.672 11.2977 12.6874 11.2243 12.6875H0.268525C0.216273 12.6875 0.165162 12.672 0.121451 12.643C0.0777412 12.614 0.0433297 12.5727 0.0224291 12.5241C0.00152837 12.4756 -0.00495378 12.422 0.0037769 12.3698C0.0125076 12.3176 0.0360703 12.2691 0.0715825 12.2302L2.38011 9.71916C2.43011 9.66462 2.49064 9.6211 2.55796 9.59131C2.62527 9.56153 2.69793 9.54611 2.77139 9.54603H13.7271C13.7798 9.54493 13.8317 9.55966 13.8762 9.58836C13.9207 9.61707 13.9559 9.65846 13.9772 9.70733C13.9985 9.75622 14.0051 9.8104 13.9961 9.86307C13.9871 9.91574 13.9629 9.96453 13.9267 10.0033Z" fill="url(#paint0_linear_754_49841)"/>
<defs>
<linearGradient id="paint0_linear_754_49841" x1="7" y1="0" x2="7" y2="12.6875" gradientUnits="userSpaceOnUse">
<stop stop-color="#FF32C6"/>
<stop offset="1" stop-color="#C478FF"/>
</linearGradient>
</defs>
</svg>
